<svg id="Camada_1" data-name="Camada 1" xmlns="http://www.w3.org/2000/svg" xmlns:xlink="http://www.w3.org/1999/xlink" viewBox="0 0 1000 1000"><defs><style>.cls-1{fill:url(#Gradiente_sem_nome_16);}.cls-2{fill:#fff;stroke:#0e6a32;stroke-miterlimit:10;stroke-width:10px;}</style><linearGradient id="Gradiente_sem_nome_16" x2="1000" y2="1000" gradientUnits="userSpaceOnUse"><stop offset="0" stop-color="#0e6a32"/><stop offset="0.18" stop-color="#106b34"/><stop offset="0.24" stop-color="#176f39"/><stop offset="0.28" stop-color="#227743"/><stop offset="0.32" stop-color="#338152"/><stop offset="0.35" stop-color="#498f65"/><stop offset="0.38" stop-color="#65a07c"/><stop offset="0.4" stop-color="#85b497"/><stop offset="0.43" stop-color="#abcbb7"/><stop offset="0.45" stop-color="#d4e4da"/><stop offset="0.47" stop-color="#fff"/><stop offset="0.47" stop-color="#fcfdfc"/><stop offset="0.47" stop-color="#f2f7f4"/><stop offset="0.47" stop-color="#e1ede7"/><stop offset="0.47" stop-color="#caded3"/><stop offset="0.47" stop-color="#accbba"/><stop offset="0.47" stop-color="#87b49c"/><stop offset="0.47" stop-color="#5a9977"/><stop offset="0.47" stop-color="#297a4f"/><stop offset="0.47" stop-color="#066532"/><stop offset="0.47" stop-color="#066532"/><stop offset="0.51" stop-color="#066532"/><stop offset="0.69" stop-color="#086634"/><stop offset="0.76" stop-color="#0f6a39"/><stop offset="0.81" stop-color="#1a7243"/><stop offset="0.85" stop-color="#2b7c51"/><stop offset="0.88" stop-color="#418a63"/><stop offset="0.91" stop-color="#5d9b79"/><stop offset="0.93" stop-color="#7daf94"/><stop offset="0.96" stop-color="#a3c6b3"/><stop offset="0.98" stop-color="#cde0d6"/><stop offset="1" stop-color="#fafcfb"/><stop offset="1" stop-color="#fff"/></linearGradient></defs><rect class="cls-1" width="1000" height="1000"/><path class="cls-2" d="M287.69,197.28a28.6,28.6,0,0,1,30.54,4.29l48.18,41.27,48.19-41.27a28.58,28.58,0,0,1,37.21,0L500,242.84l48.19-41.27a28.58,28.58,0,0,1,37.21,0l48.19,41.27,48.18-41.27A28.62,28.62,0,0,1,729,223.28V776.72a28.62,28.62,0,0,1-47.24,21.71l-48.18-41.27L585.4,798.43a28.58,28.58,0,0,1-37.21,0L500,757.16l-48.19,41.27a28.58,28.58,0,0,1-37.21,0l-48.19-41.27-48.18,41.27A28.62,28.62,0,0,1,271,776.72V223.28A28.62,28.62,0,0,1,287.69,197.28ZM385.5,366.41a19.09,19.09,0,1,0,0,38.17h229a19.09,19.09,0,1,0,0-38.17ZM366.41,614.5a19.15,19.15,0,0,0,19.09,19.09h229a19.09,19.09,0,1,0,0-38.17h-229A19.14,19.14,0,0,0,366.41,614.5ZM385.5,480.92a19.08,19.08,0,1,0,0,38.16h229a19.08,19.08,0,1,0,0-38.16Z"/></svg>