<svg id="Camada_1" data-name="Camada 1" xmlns="http://www.w3.org/2000/svg" xmlns:xlink="http://www.w3.org/1999/xlink" viewBox="0 0 1000 1000"><defs><style>.cls-1{fill:url(#Gradiente_sem_nome_26);}.cls-2{fill:#fff;stroke:#c3303f;stroke-miterlimit:10;stroke-width:10px;}</style><linearGradient id="Gradiente_sem_nome_26" x2="1000" y2="1000" gradientUnits="userSpaceOnUse"><stop offset="0" stop-color="#c3303f"/><stop offset="0.18" stop-color="#c43241"/><stop offset="0.25" stop-color="#c63947"/><stop offset="0.29" stop-color="#c94452"/><stop offset="0.33" stop-color="#ce5562"/><stop offset="0.36" stop-color="#d46b76"/><stop offset="0.39" stop-color="#dc878f"/><stop offset="0.42" stop-color="#e5a7ad"/><stop offset="0.44" stop-color="#f0cdd0"/><stop offset="0.46" stop-color="#fcf6f7"/><stop offset="0.47" stop-color="#fff"/><stop offset="0.47" stop-color="#fefcfc"/><stop offset="0.47" stop-color="#fcf4f2"/><stop offset="0.47" stop-color="#f9e6e1"/><stop offset="0.47" stop-color="#f4d2ca"/><stop offset="0.47" stop-color="#eeb8ac"/><stop offset="0.47" stop-color="#e69987"/><stop offset="0.47" stop-color="#dd745b"/><stop offset="0.47" stop-color="#d34a2a"/><stop offset="0.47" stop-color="#d34929"/><stop offset="0.47" stop-color="#d34929"/><stop offset="0.51" stop-color="#d34929"/><stop offset="0.7" stop-color="#d34b2b"/><stop offset="0.77" stop-color="#d55032"/><stop offset="0.82" stop-color="#d75a3d"/><stop offset="0.86" stop-color="#db694e"/><stop offset="0.89" stop-color="#df7c64"/><stop offset="0.92" stop-color="#e59380"/><stop offset="0.95" stop-color="#ebaea0"/><stop offset="0.97" stop-color="#f3cec6"/><stop offset="0.99" stop-color="#fcf1ef"/><stop offset="1" stop-color="#fff"/></linearGradient></defs><rect class="cls-1" width="1000" height="1000"/><path class="cls-2" d="M619.38,579.59A199.07,199.07,0,0,0,810.64,325.65c-3.85-13.43-20.39-16.41-30.21-6.59l-95.51,95.51a20,20,0,0,1-14,5.84H599.49a20,20,0,0,1-19.9-19.9V329.13a20,20,0,0,1,5.84-14.05l95.51-95.51c9.82-9.82,6.71-26.36-6.59-30.21a199.13,199.13,0,0,0-242.12,259L206.39,674.22A84.42,84.42,0,1,0,325.78,793.61L551.61,567.77A197.59,197.59,0,0,0,619.38,579.59ZM281.13,748.71A29.85,29.85,0,1,1,311,718.87,29.76,29.76,0,0,1,281.13,748.71Z"/></svg>