<svg id="Camada_1" data-name="Camada 1" xmlns="http://www.w3.org/2000/svg" xmlns:xlink="http://www.w3.org/1999/xlink" viewBox="0 0 1000 1000"><defs><style>.cls-1{fill:url(#Gradiente_sem_nome_49);}.cls-2{fill:#f2f2f2;stroke:#f79620;stroke-miterlimit:10;stroke-width:10px;}</style><linearGradient id="Gradiente_sem_nome_49" x2="1000" y2="1000" gradientUnits="userSpaceOnUse"><stop offset="0" stop-color="#f79620"/><stop offset="0.25" stop-color="#f7981f"/><stop offset="0.34" stop-color="#f89f1c"/><stop offset="0.41" stop-color="#faaa17"/><stop offset="0.46" stop-color="#fcbb0f"/><stop offset="0.5" stop-color="#ffd006"/><stop offset="0.5" stop-color="#fcbb0f"/><stop offset="0.5" stop-color="#faaa17"/><stop offset="0.5" stop-color="#f89f1c"/><stop offset="0.5" stop-color="#f7981f"/><stop offset="0.5" stop-color="#f79620"/><stop offset="0.62" stop-color="#f89b1e"/><stop offset="0.76" stop-color="#f9a818"/><stop offset="0.91" stop-color="#fdbe0e"/><stop offset="1" stop-color="#ffd006"/></linearGradient></defs><rect class="cls-1" width="1000" height="1000"/><path class="cls-2" d="M815.38,315,745.85,204.9a34.38,34.38,0,0,0-29-15.9h-433a34.38,34.38,0,0,0-29,15.9L185.22,315c-35.92,56.79-4.13,135.79,63,144.89a118.65,118.65,0,0,0,14.68,1A106.39,106.39,0,0,0,342,425.63a106.54,106.54,0,0,0,158.24,0,106.54,106.54,0,0,0,158.24,0,106.57,106.57,0,0,0,79.12,35.19,117.13,117.13,0,0,0,14.68-1c67.35-9,99.26-88,63.22-144.89ZM757.26,498.32h-.13a149.76,149.76,0,0,1-19.65,1.33,146.42,146.42,0,0,1-43-6.43V655H306.2V493.1a144.75,144.75,0,0,1-43.2,6.55,151.75,151.75,0,0,1-19.78-1.33h-.12a141.39,141.39,0,0,1-14.56-2.79V732.64a77.73,77.73,0,0,0,77.66,77.67H694.52a77.74,77.74,0,0,0,77.66-77.67V495.53a117.18,117.18,0,0,1-14.92,2.79Z"/></svg>