<svg id="Multiusos" data-name="Multiusos" xmlns="http://www.w3.org/2000/svg" xmlns:xlink="http://www.w3.org/1999/xlink" viewBox="0 0 1000 1000"><defs><style>.cls-1{fill:url(#MultiusosGra);}.cls-2{fill:#f2f2f2;stroke:#154992;stroke-miterlimit:10;stroke-width:10px;}</style><linearGradient id="MultiusosGra" x2="1000" y2="1000" gradientUnits="userSpaceOnUse"><stop offset="0" stop-color="#2e649e"/><stop offset="0.18" stop-color="#30659f"/><stop offset="0.25" stop-color="#376aa2"/><stop offset="0.29" stop-color="#4273a8"/><stop offset="0.33" stop-color="#5380af"/><stop offset="0.36" stop-color="#6990ba"/><stop offset="0.39" stop-color="#85a4c6"/><stop offset="0.42" stop-color="#a5bcd5"/><stop offset="0.44" stop-color="#cbd8e7"/><stop offset="0.46" stop-color="#f4f7fa"/><stop offset="0.47" stop-color="#fff"/><stop offset="0.47" stop-color="#fcfdfe"/><stop offset="0.47" stop-color="#f2f5f9"/><stop offset="0.47" stop-color="#e1e9f1"/><stop offset="0.47" stop-color="#cad7e6"/><stop offset="0.47" stop-color="#acc1d8"/><stop offset="0.47" stop-color="#87a5c7"/><stop offset="0.47" stop-color="#5b85b3"/><stop offset="0.47" stop-color="#2d629d"/><stop offset="0.47" stop-color="#2d629d"/><stop offset="0.51" stop-color="#2d629d"/><stop offset="0.7" stop-color="#2f639e"/><stop offset="0.77" stop-color="#3668a1"/><stop offset="0.82" stop-color="#4171a7"/><stop offset="0.86" stop-color="#527eae"/><stop offset="0.89" stop-color="#688eb9"/><stop offset="0.92" stop-color="#84a3c5"/><stop offset="0.95" stop-color="#a4bbd5"/><stop offset="0.97" stop-color="#cad7e6"/><stop offset="0.99" stop-color="#f3f6f9"/><stop offset="1" stop-color="#fff"/></linearGradient></defs><rect class="cls-1" width="1000" height="1000"/><path class="cls-2" d="M794.11,390.48a27.77,27.77,0,0,1-7.84,30.15l-53.08,48.3a232.88,232.88,0,0,1,0,62.26l53.08,48.3a27.78,27.78,0,0,1,7.84,30.15,302.72,302.72,0,0,1-19.37,42L769,661.61a312.81,312.81,0,0,1-27.08,38.24c-7.24,8.83-19.25,11.77-30,8.34l-68.28-21.7a235.61,235.61,0,0,1-53.93,31.14l-15.32,70c-2.45,11.16-11,20-22.31,21.82a318.39,318.39,0,0,1-104.18,0c-11.28-1.84-19.86-10.66-22.31-21.82l-15.32-70a235.89,235.89,0,0,1-53.94-31.14l-68.15,21.82c-10.78,3.43-22.79.37-30-8.33A312.92,312.92,0,0,1,231,661.73l-5.76-9.92a303.37,303.37,0,0,1-19.37-42,27.78,27.78,0,0,1,7.84-30.15l53.08-48.29a240.3,240.3,0,0,1-2.09-31.26,236.79,236.79,0,0,1,2.09-31.13l-53.08-48.3a27.77,27.77,0,0,1-7.84-30.15,303.25,303.25,0,0,1,19.37-42l5.76-9.93a312.81,312.81,0,0,1,27.08-38.24c7.24-8.83,19.25-11.77,30-8.34l68.28,21.7a235.21,235.21,0,0,1,53.93-31.13l15.32-70c2.45-11.16,11-20,22.31-21.82a304,304,0,0,1,52.09-4.41,316.57,316.57,0,0,1,52.09,4.29c11.28,1.84,19.86,10.66,22.31,21.82l15.32,70a235.89,235.89,0,0,1,53.94,31.14L712,291.81c10.78-3.43,22.8-.37,30,8.34a311.8,311.8,0,0,1,27.09,38.24l5.76,9.93a303.83,303.83,0,0,1,19.36,42Zm-294,207.64A98.06,98.06,0,1,0,402,500.06,98,98,0,0,0,500.06,598.12Z"/></svg>