<svg id="POS" data-name="POS" xmlns="http://www.w3.org/2000/svg" xmlns:xlink="http://www.w3.org/1999/xlink" viewBox="0 0 1000 1000"><defs><style>.cls-1{fill:url(#POSGr);}.cls-2{fill:#fff;stroke:#f79620;stroke-miterlimit:10;stroke-width:10px;}</style><linearGradient id="POSGr" x2="1000" y2="1000" gradientUnits="userSpaceOnUse"><stop offset="0" stop-color="#f79620"/><stop offset="0.25" stop-color="#f7981f"/><stop offset="0.34" stop-color="#f89f1c"/><stop offset="0.41" stop-color="#faaa17"/><stop offset="0.46" stop-color="#fcbb0f"/><stop offset="0.5" stop-color="#ffd006"/><stop offset="0.5" stop-color="#fcbb0f"/><stop offset="0.5" stop-color="#faaa17"/><stop offset="0.5" stop-color="#f89f1c"/><stop offset="0.5" stop-color="#f7981f"/><stop offset="0.5" stop-color="#f79620"/><stop offset="0.62" stop-color="#f89b1e"/><stop offset="0.76" stop-color="#f9a818"/><stop offset="0.91" stop-color="#fdbe0e"/><stop offset="1" stop-color="#ffd006"/></linearGradient></defs><rect class="cls-1" width="1000" height="1000"/><path class="cls-2" d="M269.75,193a38.33,38.33,0,0,0-38.37,38.38v76.74a38.33,38.33,0,0,0,38.37,38.38h95.94v38.38H297.33a76.85,76.85,0,0,0-75.91,65.23l-27.1,179.53A116.5,116.5,0,0,0,193,646.78v83.47A76.82,76.82,0,0,0,269.75,807h460.5A76.82,76.82,0,0,0,807,730.25V646.78a119.41,119.41,0,0,0-1.32-17.26L778.46,450.11a76.64,76.64,0,0,0-75.79-65.23H442.44V346.5h95.94a38.34,38.34,0,0,0,38.37-38.38V231.38A38.34,38.34,0,0,0,538.38,193Zm38.38,57.56H500a19.19,19.19,0,1,1,0,38.38H308.13a19.19,19.19,0,0,1,0-38.38Zm-38.38,460.5a19.24,19.24,0,0,1,19.19-19.18H711.06a19.19,19.19,0,1,1,0,38.37H288.94A19.24,19.24,0,0,1,269.75,711.06Zm57.56-259a28.78,28.78,0,1,1-28.78,28.78A28.71,28.71,0,0,1,327.31,452Zm86.35,28.78a28.78,28.78,0,1,1,28.78,28.78A28.71,28.71,0,0,1,413.66,480.81ZM384.88,548a28.78,28.78,0,1,1-28.79,28.78A28.72,28.72,0,0,1,384.88,548Zm143.9-67.16a28.78,28.78,0,1,1,28.78,28.78A28.71,28.71,0,0,1,528.78,480.81ZM500,548a28.78,28.78,0,1,1-28.78,28.78A28.71,28.71,0,0,1,500,548Zm143.91-67.16a28.78,28.78,0,1,1,28.78,28.78A28.71,28.71,0,0,1,643.91,480.81ZM615.12,548a28.78,28.78,0,1,1-28.78,28.78A28.72,28.72,0,0,1,615.12,548Z"/></svg>