<svg id="RefLogo" data-name="RefLogo" xmlns="http://www.w3.org/2000/svg" xmlns:xlink="http://www.w3.org/1999/xlink" viewBox="0 0 1000 1000"><defs><style>.cls-1{fill:url(#RefLofoDegrade);}.cls-2{fill:#fff;stroke:#154992;stroke-miterlimit:10;stroke-width:10px;}</style><linearGradient id="RefLofoDegrade" x2="1000" y2="1000" gradientUnits="userSpaceOnUse"><stop offset="0" stop-color="#2e649e"/><stop offset="0.18" stop-color="#30659f"/><stop offset="0.25" stop-color="#376aa2"/><stop offset="0.29" stop-color="#4273a8"/><stop offset="0.33" stop-color="#5380af"/><stop offset="0.36" stop-color="#6990ba"/><stop offset="0.39" stop-color="#85a4c6"/><stop offset="0.42" stop-color="#a5bcd5"/><stop offset="0.44" stop-color="#cbd8e7"/><stop offset="0.46" stop-color="#f4f7fa"/><stop offset="0.47" stop-color="#fff"/><stop offset="0.47" stop-color="#fcfdfe"/><stop offset="0.47" stop-color="#f2f5f9"/><stop offset="0.47" stop-color="#e1e9f1"/><stop offset="0.47" stop-color="#cad7e6"/><stop offset="0.47" stop-color="#acc1d8"/><stop offset="0.47" stop-color="#87a5c7"/><stop offset="0.47" stop-color="#5b85b3"/><stop offset="0.47" stop-color="#2d629d"/><stop offset="0.47" stop-color="#2d629d"/><stop offset="0.51" stop-color="#2d629d"/><stop offset="0.7" stop-color="#2f639e"/><stop offset="0.77" stop-color="#3668a1"/><stop offset="0.82" stop-color="#4171a7"/><stop offset="0.86" stop-color="#527eae"/><stop offset="0.89" stop-color="#688eb9"/><stop offset="0.92" stop-color="#84a3c5"/><stop offset="0.95" stop-color="#a4bbd5"/><stop offset="0.97" stop-color="#cad7e6"/><stop offset="0.99" stop-color="#f3f6f9"/><stop offset="1" stop-color="#fff"/></linearGradient></defs><rect class="cls-1" width="1000" height="1000"/><path class="cls-2" d="M733.64,188.48c-19.47,0-155.76,38.94-155.76,214.17V538.94a78,78,0,0,0,77.88,77.88H694.7V772.58a38.94,38.94,0,0,0,77.88,0V227.42A38.9,38.9,0,0,0,733.64,188.48Z"/><path class="cls-2" d="M305.3,208a19.46,19.46,0,0,0-38.45-4.26L230,369.55a107.17,107.17,0,0,0,94.8,130V772.58a38.94,38.94,0,0,0,77.88,0V499.51a107.13,107.13,0,0,0,94.79-130L460.57,203.69A19.46,19.46,0,0,0,422.12,208v163.3a11.95,11.95,0,0,1-23.85,1l-15.21-166a19.42,19.42,0,0,0-38.7,0l-15.09,166a11.95,11.95,0,0,1-23.85-1V208Z"/></svg>